HIERARCHY
ROOT joint_Root
{
	OFFSET 0.0 0.0 0.0
	CHANNELS 6 Xposition Yposition Zposition Zrotation Xrotation Yrotation 
	JOINT Hips
	{
		OFFSET -0.726466 93.3139 -2.00062
		CHANNELS 6 Xposition Yposition Zposition Zrotation Xrotation Yrotation 
		JOINT Spine
		{
			OFFSET 15.7357 0.0 0.0
			CHANNELS 6 Xposition Yposition Zposition Zrotation Xrotation Yrotation 
			JOINT Chest
			{
				OFFSET 8.98455 -0.406207 0.0
				CHANNELS 6 Xposition Yposition Zposition Zrotation Xrotation Yrotation 
				JOINT Neck
				{
					OFFSET 16.3773 0.0 0.0
					CHANNELS 6 Xposition Yposition Zposition Zrotation Xrotation Yrotation 
					JOINT Head
					{
						OFFSET 6.45672 0.0 0.0
						CHANNELS 6 Xposition Yposition Zposition Zrotation Xrotation Yrotation 
						End Site
						{
							OFFSET 0.0 0.0 0.0
						}
					}
				}
				JOINT Shoulder_L
				{
					OFFSET 12.9942 -0.242716 4.98039
					CHANNELS 6 Xposition Yposition Zposition Zrotation Xrotation Yrotation 
					JOINT UpperArm_L
					{
						OFFSET 5.34809 0.0 0.0
						CHANNELS 6 Xposition Yposition Zposition Zrotation Xrotation Yrotation 
						JOINT LowerArm_L
						{
							OFFSET 24.3286 1.87007e-05 0.0
							CHANNELS 6 Xposition Yposition Zposition Zrotation Xrotation Yrotation 
							JOINT Hand_L
							{
								OFFSET 22.2916 0.0 0.0
								CHANNELS 6 Xposition Yposition Zposition Zrotation Xrotation Yrotation 
								End Site
								{
									OFFSET 0.0 0.0 0.0
								}
							}
						}
					}
				}
				JOINT Shoulder_R
				{
					OFFSET 12.9945 -0.242716 -4.98039
					CHANNELS 6 Xposition Yposition Zposition Zrotation Xrotation Yrotation 
					JOINT UpperArm_R
					{
						OFFSET -5.34813 0.0 0.0
						CHANNELS 6 Xposition Yposition Zposition Zrotation Xrotation Yrotation 
						JOINT LowerArm_R
						{
							OFFSET -24.3289 0.000322201 0.0
							CHANNELS 6 Xposition Yposition Zposition Zrotation Xrotation Yrotation 
							JOINT Hand_R
							{
								OFFSET -22.2915 -0.000108084 0.0
								CHANNELS 6 Xposition Yposition Zposition Zrotation Xrotation Yrotation 
								End Site
								{
									OFFSET 0.0 0.0 0.0
								}
							}
						}
					}
				}
			}
		}
		JOINT UpperLeg_L
		{
			OFFSET -2.19248 -6.46944 0.0
			CHANNELS 6 Xposition Yposition Zposition Zrotation Xrotation Yrotation 
			JOINT LowerLeg_L
			{
				OFFSET 39.0811 0.0 -1.23785e-05
				CHANNELS 6 Xposition Yposition Zposition Zrotation Xrotation Yrotation 
				JOINT Foot_L
				{
					OFFSET 40.9854 0.0 -1.26872e-05
					CHANNELS 6 Xposition Yposition Zposition Zrotation Xrotation Yrotation 
					JOINT Toes_L
					{
						OFFSET 11.7543 0.0 0.0
						CHANNELS 6 Xposition Yposition Zposition Zrotation Xrotation Yrotation 
						End Site
						{
							OFFSET 0.0 0.0 0.0
						}
					}
				}
			}
		}
		JOINT UpperLeg_R
		{
			OFFSET -2.19251 6.46944 0.0
			CHANNELS 6 Xposition Yposition Zposition Zrotation Xrotation Yrotation 
			JOINT LowerLeg_R
			{
				OFFSET -39.0811 -0.00228153 -0.0401928
				CHANNELS 6 Xposition Yposition Zposition Zrotation Xrotation Yrotation 
				JOINT Foot_R
				{
					OFFSET -40.9854 0.0 0.0
					CHANNELS 6 Xposition Yposition Zposition Zrotation Xrotation Yrotation 
					JOINT Toes_R
					{
						OFFSET -11.7543 0.0 0.0
						CHANNELS 6 Xposition Yposition Zposition Zrotation Xrotation Yrotation 
						End Site
						{
							OFFSET 0.0 0.0 0.0
						}
					}
				}
			}
		}
	}
}
MOTION
Frames:	4
Frame Time:	0.0333333
0.000000 0.000000 0.000000 0.000000 0.000000 -0.000000 -1.523690 92.158800 -2.543750 87.311100 -1.601710 2.020780 15.735700 0.000005 -0.000001 82.541200 85.819100 -82.039100 8.984550 -0.406207 -0.000000 0.530201 -1.116810 1.008570 16.377300 -0.000001 -0.000001 2.316170 -0.520066 -1.024320 6.456720 -0.000001 -0.000000 -0.001138 0.754448 2.763710 12.994200 -0.242716 4.980390 -89.733300 -0.794978 -71.453500 5.348090 -0.000007 -0.000001 -65.698600 39.667800 -16.495000 24.328600 0.000019 0.000005 2.965680 6.458090 -24.730400 22.291600 -0.000001 0.000005 7.603140 5.600120 -11.349200 12.994500 -0.242716 -4.980390 87.607200 6.692560 -70.274300 -5.348130 -0.000001 -0.000004 -65.658200 35.632000 -12.510800 -24.328900 0.000322 -0.000009 -3.137060 -7.327960 -23.247000 -22.291500 -0.000108 -0.000004 10.359900 5.592980 -10.930800 -2.192480 -6.469440 -0.000000 -167.892000 -15.794100 -4.003470 39.081100 -0.000007 -0.000012 -0.170629 0.463295 20.218700 40.985400 -0.000006 -0.000013 -7.121290 2.827010 -62.002800 11.754300 -0.000000 0.000003 -0.000092 -0.000958 -16.614400 -2.192510 6.469440 -0.000001 175.467000 21.111700 177.412000 -39.081100 -0.002282 -0.040193 -0.070172 0.219818 18.487400 -40.985400 0.000008 0.000006 -4.144260 4.586660 -61.810700 -11.754300 -0.000006 -0.000006 -0.005367 -0.064974 -19.217000
0.000000 0.000000 0.000000 0.000000 0.000000 -0.000000 -1.545440 92.153700 -2.571110 87.290800 -1.625910 2.110980 15.735700 0.000005 -0.000001 82.360900 85.763900 -81.810500 8.984550 -0.406207 -0.000000 0.637005 -1.160080 1.106480 16.377300 -0.000001 -0.000001 2.326700 -0.607820 -0.944021 6.456720 -0.000001 -0.000000 0.077103 0.680285 2.944590 12.994200 -0.242716 4.980390 -89.763100 -0.708132 -71.504400 5.348090 -0.000007 -0.000001 -63.845900 39.908000 -18.201200 24.328600 0.000019 0.000005 3.345720 6.994340 -25.643700 22.291600 -0.000001 0.000005 7.836520 5.605750 -11.693400 12.994500 -0.242716 -4.980390 87.703300 6.432240 -70.302200 -5.348130 -0.000001 -0.000004 -64.651900 38.102500 -12.410400 -24.328900 0.000322 -0.000009 -2.883030 -6.111860 -25.310300 -22.291500 -0.000108 -0.000004 10.397800 5.593560 -10.964200 -2.192480 -6.469440 -0.000000 -167.844000 -15.773800 -3.964150 39.081100 -0.000007 -0.000012 -0.169979 0.459953 20.282300 40.985400 -0.000006 -0.000013 -7.132760 2.783720 -62.010200 11.754300 -0.000000 0.000003 -0.000085 -0.000899 -16.612100 -2.192510 6.469440 -0.000001 175.469000 21.075300 177.457000 -39.081100 -0.002282 -0.040193 -0.072256 0.225336 18.542000 -40.985400 0.000008 0.000006 -4.109090 4.598750 -61.825100 -11.754300 -0.000006 -0.000006 -0.005519 -0.066403 -19.275300
0.000000 0.000000 0.000000 0.000000 0.000000 -0.000000 -1.566230 92.159100 -2.619650 87.295000 -1.547100 2.191680 15.735700 0.000005 -0.000001 82.170600 85.726300 -81.595500 8.984550 -0.406207 -0.000000 0.708199 -1.199360 1.156810 16.377300 -0.000001 -0.000001 2.423330 -0.743973 -0.858213 6.456720 -0.000001 -0.000000 0.112570 0.525444 3.226390 12.994200 -0.242716 4.980390 -89.801700 -0.592977 -71.510600 5.348090 -0.000007 -0.000001 -61.277100 39.420500 -20.596300 24.328600 0.000019 0.000005 3.817420 7.474100 -27.154700 22.291600 -0.000001 0.000005 7.715400 5.607770 -11.818000 12.994500 -0.242716 -4.980390 87.775000 6.203500 -70.223800 -5.348130 -0.000001 -0.000004 -63.398700 40.861900 -12.144600 -24.328900 0.000322 -0.000009 -2.625370 -4.901150 -28.220800 -22.291500 -0.000108 -0.000004 10.244300 5.595300 -11.065400 -2.192480 -6.469440 -0.000000 -167.809000 -15.767100 -3.899420 39.081100 -0.000007 -0.000012 -0.170261 0.462203 20.222400 40.985400 -0.000006 -0.000013 -7.131900 2.879780 -61.933600 11.754300 -0.000000 0.000003 -0.000088 -0.000918 -16.612900 -2.192510 6.469440 -0.000001 175.465000 21.143900 177.526000 -39.081100 -0.002282 -0.040193 -0.071324 0.222644 18.535200 -40.985400 0.000008 0.000006 -4.118870 4.559750 -61.803200 -11.754300 -0.000006 -0.000006 -0.005303 -0.064366 -19.192200
0.000000 0.000000 0.000000 0.000000 0.000000 -0.000000 -1.610890 92.149300 -2.654250 87.274700 -1.384920 2.267590 15.735700 0.000005 -0.000001 81.887400 85.699800 -81.259600 8.984550 -0.406207 -0.000000 0.755767 -1.251660 1.262920 16.377300 -0.000001 -0.000001 2.523420 -0.896864 -0.863853 6.456720 -0.000001 -0.000000 0.257202 0.361877 3.429770 12.994200 -0.242716 4.980390 -89.847600 -0.456005 -71.517200 5.348090 -0.000007 -0.000001 -58.057500 38.245500 -23.572200 24.328600 0.000019 0.000005 4.127190 7.408240 -29.234000 22.291600 -0.000001 0.000005 7.218730 5.607010 -11.770400 12.994500 -0.242716 -4.980390 87.902300 5.815000 -70.124200 -5.348130 -0.000001 -0.000004 -62.102200 43.731600 -11.608400 -24.328900 0.000322 -0.000009 -1.827280 -2.926290 -32.011200 -22.291500 -0.000108 -0.000004 10.096000 5.601530 -11.436200 -2.192480 -6.469440 -0.000000 -167.753000 -15.723500 -3.939280 39.081100 -0.000007 -0.000012 -0.170012 0.459363 20.309900 40.985400 -0.000006 -0.000013 -7.127200 3.003190 -61.913600 11.754300 -0.000000 0.000003 -0.000092 -0.000954 -16.614200 -2.192510 6.469440 -0.000001 175.473000 21.217100 177.572000 -39.081100 -0.002282 -0.040193 -0.073771 0.228989 18.607300 -40.985400 0.000008 0.000006 -4.153230 4.501890 -61.839200 -11.754300 -0.000006 -0.000006 -0.005251 -0.063873 -19.172100
